<svg xmlns="http://www.w3.org/2000/svg" viewBox="0 0 64 64" fill="none">
  <!-- Background circle -->
  <circle cx="32" cy="32" r="32" fill="#07101F"/>
  <!-- Cloud shape -->
  <path d="M44 34c0-4.4-3.6-8-8-8-.6 0-1.2.1-1.8.2C33.1 23.5 30.2 21 26.5 21c-4.1 0-7.5 3.4-7.5 7.5 0 .3 0 .6.1.9C16.5 30.3 15 32.5 15 35c0 3.3 2.7 6 6 6h22c2.8 0 5-2.2 5-5 0-.3 0-.7-.1-1 .1-.3.1-.6.1-1z" fill="#00E5CC"/>
  <!-- RH letters -->
  <text x="32" y="40" font-family="Inter, system-ui, sans-serif" font-size="13" font-weight="700" fill="#07101F" text-anchor="middle" letter-spacing="0.5">RH</text>
</svg>
